<svg xmlns="http://www.w3.org/2000/svg" viewBox="0 0 173.6 49.8">
  <defs>
    <style>
      .cls-1 {
        fill: #28a8e0;
      }

      .cls-2 {
        fill: #808285;
      }

      .cls-3 {
        fill: #39b54a;
      }

      .cls-4 {
        fill: none;
      }

      .cls-5 {
        fill: #666;
      }
    </style>
  </defs>
  <g id="Group_2595" data-name="Group 2595" transform="translate(-0.1)">
    <g id="Group_2592" data-name="Group 2592">
      <path id="Path_5596" data-name="Path 5596" class="cls-1" d="M4.8,42.6a4.349,4.349,0,0,0-.7-.6,2.959,2.959,0,0,0-1-.2,1.268,1.268,0,0,0-.6.1c-.1.1-.3.1-.5.3-.2.1-.3.3-.4.4a1.85,1.85,0,0,0,0,1.2.781.781,0,0,0,.4.4,3.329,3.329,0,0,0,.6.3,1.445,1.445,0,0,0,.7.2l.9.3a5.937,5.937,0,0,1,.8.4,4.349,4.349,0,0,1,.6.7,1.815,1.815,0,0,1,.2,1.1,3.6,3.6,0,0,1-.2,1.1,2.7,2.7,0,0,1-.7.8,4.053,4.053,0,0,1-.9.5,3.6,3.6,0,0,1-1.1.2,4.529,4.529,0,0,1-1.6-.3,2.73,2.73,0,0,1-1.2-.9l.9-.8a2.7,2.7,0,0,0,.8.7,2.016,2.016,0,0,0,1.1.3,1.268,1.268,0,0,0,.6-.1c.2-.1.4-.1.5-.3a1,1,0,0,0,.4-.5,1.445,1.445,0,0,0,.2-.7.845.845,0,0,0-.2-.6c-.1-.2-.3-.3-.4-.4l-.6-.3a6.89,6.89,0,0,0-.8-.3c-.3-.1-.5-.2-.8-.3a4.348,4.348,0,0,1-.7-.4,1.794,1.794,0,0,1-.5-.7,2.958,2.958,0,0,1-.2-1,2.016,2.016,0,0,1,.3-1.1,2.7,2.7,0,0,1,.7-.8,3.552,3.552,0,0,1,.9-.4,3.75,3.75,0,0,1,1.1-.1,3.194,3.194,0,0,1,1.4.3,2.552,2.552,0,0,1,1,.7Z"/>
      <path id="Path_5597" data-name="Path 5597" class="cls-1" d="M13.1,49.8a3.653,3.653,0,0,1-1.5-.3,2,2,0,0,1-1-.8,5.973,5.973,0,0,1-.6-1.1,5.067,5.067,0,0,1-.2-1.3V41H11v5.3a2.769,2.769,0,0,0,.1.9,2.994,2.994,0,0,0,.4.8,2.651,2.651,0,0,0,.6.5,2.959,2.959,0,0,0,1,.2,2.958,2.958,0,0,0,1-.2,1.794,1.794,0,0,0,.7-.5,2.01,2.01,0,0,0,.4-.8,2.769,2.769,0,0,0,.1-.9V41h1.2v5.4a5.853,5.853,0,0,1-.2,1.3,2.384,2.384,0,0,1-.6,1.1,3.915,3.915,0,0,1-1,.8A4.145,4.145,0,0,1,13.1,49.8Zm-2-10.4a.707.707,0,0,1,1.2-.5.707.707,0,0,1-1,1A.764.764,0,0,1,11.1,39.4Zm2.4,0a.684.684,0,1,1,.2.5C13.5,39.8,13.5,39.6,13.5,39.4Z"/>
      <path id="Path_5598" data-name="Path 5598" class="cls-1" d="M20.8,41h2.9a8.752,8.752,0,0,1,1.6.2,5.483,5.483,0,0,1,1.5.8,4.735,4.735,0,0,1,1.1,1.3,4.713,4.713,0,0,1,0,3.8,3.482,3.482,0,0,1-1.1,1.3,5.3,5.3,0,0,1-1.5.8,4.529,4.529,0,0,1-1.6.3H20.8Zm1.1,7.5h1.5a5.9,5.9,0,0,0,1.4-.2,3.881,3.881,0,0,0,1.1-.6,1.834,1.834,0,0,0,.7-1,3.417,3.417,0,0,0,0-2.8,3.592,3.592,0,0,0-.7-1,2.384,2.384,0,0,0-1.1-.6,5.9,5.9,0,0,0-1.4-.2H21.9Z"/>
      <path id="Path_5599" data-name="Path 5599" class="cls-1" d="M34.9,49.5H33.7V42H31V41h6.6v1H34.9v7.5Z"/>
      <path id="Path_5600" data-name="Path 5600" class="cls-1" d="M42.4,49.5H41.2V41h1.2Z"/>
      <path id="Path_5601" data-name="Path 5601" class="cls-1" d="M48,49.5H46.8V41h2.7a4.869,4.869,0,0,1,1.2.1,3,3,0,0,1,1,.4,2.336,2.336,0,0,1,.7.7,1.978,1.978,0,0,1,.2,1.1,2.035,2.035,0,0,1-.6,1.5,2.628,2.628,0,0,1-1.5.7l2.4,3.9H51.5l-2.2-3.8H48Zm0-4.7h1.4a2.2,2.2,0,0,0,.8-.1,1.421,1.421,0,0,0,.6-.2.781.781,0,0,0,.4-.4,1.421,1.421,0,0,0,.2-.6.845.845,0,0,0-.2-.6.781.781,0,0,0-.4-.4,1.421,1.421,0,0,0-.6-.2c-.2,0-.5-.1-.7-.1H48Z"/>
      <path id="Path_5602" data-name="Path 5602" class="cls-1" d="M65.2,45.3a4.844,4.844,0,0,1-.3,1.8,3.917,3.917,0,0,1-2.3,2.3,5.55,5.55,0,0,1-3.6,0,3.917,3.917,0,0,1-2.3-2.3,5.55,5.55,0,0,1,0-3.6A3.917,3.917,0,0,1,59,41.2a4.844,4.844,0,0,1,1.8-.3,5.23,5.23,0,0,1,1.8.3,3.39,3.39,0,0,1,1.4.9,4.2,4.2,0,0,1,.9,1.4A4.844,4.844,0,0,1,65.2,45.3Zm-1.3,0a5.066,5.066,0,0,0-.2-1.3,10.908,10.908,0,0,0-.6-1.1,2.286,2.286,0,0,0-1-.7,4.961,4.961,0,0,0-1.3-.3,2.768,2.768,0,0,0-1.3.3,3.592,3.592,0,0,0-1,.7,2.384,2.384,0,0,0-.6,1.1,2.953,2.953,0,0,0-.2,1.3,5.066,5.066,0,0,0,.2,1.3,10.908,10.908,0,0,0,.6,1.1,3.592,3.592,0,0,0,1,.7,2.967,2.967,0,0,0,2.6,0,3.592,3.592,0,0,0,1-.7,2.384,2.384,0,0,0,.6-1.1A5.067,5.067,0,0,0,63.9,45.3Z"/>
      <path id="Path_5603" data-name="Path 5603" class="cls-1" d="M70.4,48.5h3.8v1.1h-5V41h1.2Z"/>
      <path id="Path_5604" data-name="Path 5604" class="cls-1" d="M79.1,45.1a1.421,1.421,0,0,1-.2.6c-.2.2-.3.2-.6.2a1.421,1.421,0,0,1-.6-.2.551.551,0,0,1-.2-.5,1.421,1.421,0,0,1,.2-.6c.2-.2.3-.2.6-.2a1.421,1.421,0,0,1,.6.2A.764.764,0,0,1,79.1,45.1Z"/>
      <path id="Path_5605" data-name="Path 5605" class="cls-1" d="M83.6,49.5H82.3L86,41h1l3.6,8.5H89.3l-.9-2.1h-4Zm1.3-3.1H88l-1.6-4Z"/>
      <path id="Path_5606" data-name="Path 5606" class="cls-1" d="M95.4,48.5h3.8v1.1h-5V41h1.2Z"/>
      <path id="Path_5607" data-name="Path 5607" class="cls-1" d="M104.6,49.5h-1.2V42h-2.7V41h6.6v1h-2.7v7.5Z"/>
      <path id="Path_5608" data-name="Path 5608" class="cls-1" d="M119,45.3a4.844,4.844,0,0,1-.3,1.8,3.917,3.917,0,0,1-2.3,2.3,5.55,5.55,0,0,1-3.6,0,3.917,3.917,0,0,1-2.3-2.3,5.55,5.55,0,0,1,0-3.6,3.917,3.917,0,0,1,2.3-2.3,4.844,4.844,0,0,1,1.8-.3,5.663,5.663,0,0,1,1.8.3,3.39,3.39,0,0,1,1.4.9,4.2,4.2,0,0,1,.9,1.4A4.844,4.844,0,0,1,119,45.3Zm-1.2,0a5.067,5.067,0,0,0-.2-1.3,10.907,10.907,0,0,0-.6-1.1,2.286,2.286,0,0,0-1-.7,2.967,2.967,0,0,0-2.6,0,3.592,3.592,0,0,0-1,.7,2.384,2.384,0,0,0-.6,1.1,2.954,2.954,0,0,0-.2,1.3,5.067,5.067,0,0,0,.2,1.3,10.907,10.907,0,0,0,.6,1.1,3.592,3.592,0,0,0,1,.7,2.967,2.967,0,0,0,2.6,0,3.592,3.592,0,0,0,1-.7,2.384,2.384,0,0,0,.6-1.1A5.067,5.067,0,0,0,117.8,45.3Z"/>
      <path id="Path_5609" data-name="Path 5609" class="cls-1" d="M128.6,49.5h-1.3L131,41h1.1l3.6,8.5h-1.3l-.9-2.1h-4Zm1.3-3.1h3.2l-1.6-4Z"/>
      <path id="Path_5610" data-name="Path 5610" class="cls-1" d="M139.2,41h2.9a8.752,8.752,0,0,1,1.6.2,3.675,3.675,0,0,1,1.5.8,4.735,4.735,0,0,1,1.1,1.3,4.713,4.713,0,0,1,0,3.8,3.482,3.482,0,0,1-1.1,1.3,5.3,5.3,0,0,1-1.5.8,4.529,4.529,0,0,1-1.6.3h-2.9Zm1.2,7.5h1.5a5.9,5.9,0,0,0,1.4-.2,3.881,3.881,0,0,0,1.1-.6,1.834,1.834,0,0,0,.7-1,3.417,3.417,0,0,0,0-2.8,3.591,3.591,0,0,0-.7-1,2.384,2.384,0,0,0-1.1-.6,5.9,5.9,0,0,0-1.4-.2h-1.5Z"/>
      <path id="Path_5611" data-name="Path 5611" class="cls-1" d="M151.9,49.5h-1.2V41h1.2Z"/>
      <path id="Path_5612" data-name="Path 5612" class="cls-1" d="M162.8,42.8a3.592,3.592,0,0,0-1-.7,2.967,2.967,0,0,0-2.6,0,3.591,3.591,0,0,0-1,.7,2.384,2.384,0,0,0-.6,1.1,2.954,2.954,0,0,0-.2,1.3,5.067,5.067,0,0,0,.2,1.3,10.9,10.9,0,0,0,.6,1.1,3.592,3.592,0,0,0,1,.7,3.194,3.194,0,0,0,1.4.3,3.75,3.75,0,0,0,1.1-.1l.9-.3V45.8h-1.9v-1h3.1V49a11.639,11.639,0,0,1-1.5.6,8.807,8.807,0,0,1-1.7.2,4.844,4.844,0,0,1-1.8-.3,3.39,3.39,0,0,1-1.4-.9,4.2,4.2,0,0,1-.9-1.4,5.55,5.55,0,0,1,0-3.6,3.917,3.917,0,0,1,2.3-2.3,5.663,5.663,0,0,1,1.8-.3,4.844,4.844,0,0,1,1.8.3,4.11,4.11,0,0,1,1.3.8Z"/>
      <path id="Path_5613" data-name="Path 5613" class="cls-1" d="M169.3,48.5h4.4v1.1h-5.6V41h5.4v1h-4.3v2.5h4v1h-4v3Z"/>
    </g>
    <path id="Path_5614" data-name="Path 5614" class="cls-2" d="M20,18.1a6.482,6.482,0,0,1,1.3,4.1c0,3-1,5.3-3,6.7A12.657,12.657,0,0,1,10.9,31H.9V1.2H9.7a12.829,12.829,0,0,1,7.5,1.9,6.408,6.408,0,0,1,2.7,5.6,8.025,8.025,0,0,1-.9,3.9,7.464,7.464,0,0,1-2.6,2.7A10.249,10.249,0,0,1,20,18.1ZM6.8,13.4h3.6a3.04,3.04,0,0,0,2.5-1,3.656,3.656,0,0,0,.9-2.5,2.644,2.644,0,0,0-1-2.3A4.655,4.655,0,0,0,10,6.8H6.8Zm7.1,11.3a2.764,2.764,0,0,0,1.3-2.5c0-2.1-1.7-3.2-5-3.2H6.8v6.5h3.8A5.585,5.585,0,0,0,13.9,24.7Z"/>
    <path id="Path_5615" data-name="Path 5615" class="cls-2" d="M47.5,1.2V6.9H33v6.4H45.8V19H33v6.4H48V31H27.1V1.2Z"/>
    <path id="Path_5616" data-name="Path 5616" class="cls-2" d="M68.9,25.2H59L56.6,31H50.8L64.2,0h.3L78,31H71.2Zm-1.9-5L64.1,13l-3,7.3H67Z"/>
    <path id="Path_5617" data-name="Path 5617" class="cls-2" d="M99.1,30.4a15.29,15.29,0,0,1-5.4.9,16.2,16.2,0,0,1-8.1-2,13.992,13.992,0,0,1-5.3-5.5,15.97,15.97,0,0,1-1.8-7.5,17.148,17.148,0,0,1,1.8-8,12.937,12.937,0,0,1,5.1-5.5A14.6,14.6,0,0,1,93,.8a15.912,15.912,0,0,1,5,.7,22.038,22.038,0,0,1,4.1,1.8L99.8,9a10.738,10.738,0,0,0-6.6-2.4,7.716,7.716,0,0,0-4.3,1.3,9.529,9.529,0,0,0-4.4,8.2,11.166,11.166,0,0,0,1.1,5,8.484,8.484,0,0,0,3.1,3.4,9.13,9.13,0,0,0,4.7,1.2,9.374,9.374,0,0,0,3.9-.7,8.345,8.345,0,0,0,2.8-1.7l2.4,5.3A8.526,8.526,0,0,1,99.1,30.4Z"/>
    <path id="Path_5618" data-name="Path 5618" class="cls-2" d="M172,1.2V32.3h-.2L150.9,13.4,151,31h-6V0h.2L166,19.1l-.1-18H172Z"/>
    <g id="Group_2593" data-name="Group 2593">
      <path id="Path_5619" data-name="Path 5619" class="cls-3" d="M88.8,39.5h0"/>
      <path id="Path_5620" data-name="Path 5620" class="cls-3" d="M129.2,39.5h0"/>
    </g>
    <g id="Group_2594" data-name="Group 2594">
      <path id="Path_5621" data-name="Path 5621" class="cls-1" d="M132.7,28.6c4-3,6.5-7,6.7-11.8a15.472,15.472,0,0,0-5.7-12.3,1.135,1.135,0,0,0-.8-.3.984.984,0,0,0-.8.3l-1.7,1.3a.8.8,0,0,0-.1,1.3,12.123,12.123,0,0,1,4.4,9.6c-.1,3.7-2.2,6.9-5.2,9.2a.751.751,0,0,0,0,1.3l1.6,1.4a1.135,1.135,0,0,0,.8.3C132.2,28.8,132.5,28.8,132.7,28.6Z"/>
      <path id="Path_5622" data-name="Path 5622" class="cls-1" d="M130,16.4a8.578,8.578,0,0,0-3.1-6.8,1.363,1.363,0,0,0-1.6-.1l-1.7,1.3a.8.8,0,0,0-.1,1.3,4.9,4.9,0,0,1,1.8,4.1,5.416,5.416,0,0,1-2.2,3.9.8.8,0,0,0-.1,1.3l1.6,1.4a1.363,1.363,0,0,0,1.6.1A8.158,8.158,0,0,0,130,16.4Z"/>
    </g>
    <path id="Path_5623" data-name="Path 5623" class="cls-4" d="M119.3,7.8a9.253,9.253,0,0,0-3.3,3.5,10.156,10.156,0,0,0-1.2,4.9A10.05,10.05,0,0,0,116,21a8.8,8.8,0,0,0,3.4,3.5,8.544,8.544,0,0,0,4.7,1.3,9.863,9.863,0,0,0,2.4-.3L124.9,24V8.3L126.6,7a9.379,9.379,0,0,0-7.3.8Z"/>
    <path id="Path_5624" data-name="Path 5624" class="cls-5" d="M124.1,25.7a8.544,8.544,0,0,1-4.7-1.3,10.362,10.362,0,0,1-3.4-3.5,10.05,10.05,0,0,1-1.2-4.8,10.156,10.156,0,0,1,1.2-4.9,9.253,9.253,0,0,1,3.3-3.5,8.215,8.215,0,0,1,4.6-1.3,8.031,8.031,0,0,1,2.7.4l5-3.9c-.1,0-.1-.1-.2-.1a14.8,14.8,0,0,0-15.2,0,16.664,16.664,0,0,0-5.6,5.6,14.661,14.661,0,0,0-2,7.6,15.126,15.126,0,0,0,2,7.6,15.262,15.262,0,0,0,5.5,5.5,14.415,14.415,0,0,0,7.6,2,14.69,14.69,0,0,0,7.1-1.8l-4.5-4.2A3.041,3.041,0,0,1,124.1,25.7Z"/>
  </g>
</svg>
